<?xml version="1.0" encoding="UTF-8" standalone="no"?>
<svg
   xmlns:dc="http://purl.org/dc/elements/1.1/"
   xmlns:cc="http://creativecommons.org/ns#"
   xmlns:rdf="http://www.w3.org/1999/02/22-rdf-syntax-ns#"
   xmlns:svg="http://www.w3.org/2000/svg"
   xmlns="http://www.w3.org/2000/svg"
   xmlns:sodipodi="http://sodipodi.sourceforge.net/DTD/sodipodi-0.dtd"
   xmlns:inkscape="http://www.inkscape.org/namespaces/inkscape"
   width="1.26334in"
   height="1.16334in"
   viewBox="0 0 758 698"
   id="svg2"
   version="1.1"
   inkscape:version="0.91 r13725"
   sodipodi:docname="heart.svg">
  <metadata
     id="metadata13">
    <rdf:RDF>
      <cc:Work
         rdf:about="">
        <dc:format>image/svg+xml</dc:format>
        <dc:type
           rdf:resource="http://purl.org/dc/dcmitype/StillImage" />
      </cc:Work>
    </rdf:RDF>
  </metadata>
  <defs
     id="defs11" />
  <sodipodi:namedview
     pagecolor="#ffffff"
     bordercolor="#666666"
     borderopacity="1"
     objecttolerance="10"
     gridtolerance="10"
     guidetolerance="10"
     inkscape:pageopacity="0"
     inkscape:pageshadow="2"
     inkscape:window-width="1178"
     inkscape:window-height="952"
     id="namedview9"
     showgrid="false"
     inkscape:zoom="7.8362546"
     inkscape:cx="81.623202"
     inkscape:cy="52.350299"
     inkscape:window-x="384"
     inkscape:window-y="62"
     inkscape:window-maximized="0"
     inkscape:current-layer="svg2" />
  <path
     id="選択範囲 #4"
     fill="none"
     stroke="black"
     stroke-width="1"
     d="M 189.00,388.00            C 189.00,388.00 195.00,398.00 195.00,398.00              195.00,398.00 194.00,401.00 194.00,401.00              198.44,403.98 201.66,414.88 204.37,419.91              209.14,428.78 216.56,435.07 221.00,445.00              221.00,445.00 223.00,444.00 223.00,444.00              223.00,444.00 224.00,445.00 224.00,445.00              224.00,445.00 224.00,449.00 224.00,449.00              224.00,449.00 226.00,448.00 226.00,448.00              229.86,454.71 236.75,463.49 243.00,468.00              244.21,472.11 249.86,475.90 253.00,479.00              253.00,479.00 263.96,489.73 263.96,489.73              263.96,489.73 283.83,506.17 283.83,506.17              297.69,519.28 329.20,541.70 346.04,551.40              351.22,554.38 361.52,563.10 367.00,562.67              370.47,562.40 374.86,558.76 377.99,556.94              377.99,556.94 390.58,549.83 390.58,549.83              390.58,549.83 404.00,541.00 404.00,541.00              431.79,525.00 467.13,496.72 489.83,473.83              489.83,473.83 500.32,461.03 500.32,461.03              500.32,461.03 514.89,444.02 514.89,444.02              514.89,444.02 536.28,411.00 536.28,411.00              538.09,407.86 542.90,396.51 545.35,395.07              550.43,392.10 550.00,401.59 550.00,404.00              550.00,404.00 550.00,418.00 550.00,418.00              550.00,418.00 553.06,441.00 553.06,441.00              553.06,441.00 553.06,453.00 553.06,453.00              553.84,457.70 555.87,468.21 555.00,472.00              557.83,474.50 557.53,477.48 557.00,481.00              559.60,483.32 560.01,489.47 560.87,493.00              560.87,493.00 566.93,518.83 566.93,518.83              568.66,523.88 571.90,528.66 568.40,533.96              563.62,541.21 547.67,549.63 544.00,557.00              540.31,557.99 537.10,562.11 534.00,564.45              534.00,564.45 511.00,582.78 511.00,582.78              507.63,585.29 502.21,587.89 501.00,592.00              501.00,592.00 497.00,592.00 497.00,592.00              494.83,598.27 479.84,605.79 474.00,610.44              457.72,623.40 439.84,633.68 422.04,644.33              422.04,644.33 414.91,649.32 414.91,649.32              414.91,649.32 395.00,660.75 395.00,660.75              387.95,665.30 373.79,668.66 370.00,676.00              366.89,675.97 364.19,676.01 361.17,675.05              354.93,673.06 339.94,662.44 334.00,658.60              334.00,658.60 323.58,652.91 323.58,652.91              318.23,649.04 309.51,641.56 303.00,641.00              303.00,641.00 302.00,639.00 302.00,639.00              302.00,639.00 303.00,638.00 303.00,638.00              299.39,636.59 286.15,627.92 284.00,625.00              284.00,625.00 281.00,626.00 281.00,626.00              281.00,626.00 282.00,623.00 282.00,623.00              271.99,620.55 254.33,601.69 246.00,600.00              246.00,600.00 245.00,597.00 245.00,597.00              238.19,595.80 225.68,584.08 220.00,579.42              220.00,579.42 180.91,546.42 180.91,546.42              176.94,542.79 165.25,532.19 163.18,528.00              163.18,528.00 161.00,517.00 161.00,517.00              165.52,515.39 166.40,508.14 167.74,504.00              167.74,504.00 174.10,481.00 174.10,481.00              174.10,481.00 175.67,471.00 175.67,471.00              176.65,466.04 174.84,462.84 178.00,460.00              177.47,454.46 179.98,444.16 180.72,438.00              180.72,438.00 181.29,428.00 181.29,428.00              183.39,411.82 185.83,405.65 185.00,388.00              185.00,388.00 189.00,388.00 189.00,388.00 Z"
     style="stroke:#ff0000;stroke-opacity:1" />
  <path
     id="選択範囲 #3"
     fill="none"
     stroke="black"
     stroke-width="1"
     d="M 281.00,270.00            C 297.57,270.00 305.81,271.31 322.00,274.63              329.62,276.19 332.59,279.46 341.00,279.00              341.00,279.00 357.00,289.78 357.00,289.78              357.00,289.78 370.00,302.00 370.00,302.00              370.00,302.00 376.00,293.00 376.00,293.00              376.00,293.00 385.32,287.07 385.32,287.07              385.32,287.07 402.00,279.94 402.00,279.94              402.00,279.94 412.00,277.52 412.00,277.52              412.00,277.52 423.00,274.21 423.00,274.21              423.00,274.21 455.00,273.00 455.00,273.00              455.00,273.00 468.00,272.09 468.00,272.09              468.00,272.09 484.83,274.93 484.83,274.93              484.83,274.93 492.00,277.00 492.00,277.00              498.74,275.42 499.28,277.95 505.28,279.26              518.74,282.19 532.89,291.37 540.41,303.00              544.36,309.11 545.90,309.22 546.00,317.00              546.12,326.27 543.13,334.83 538.65,342.92              536.56,346.68 533.08,348.71 532.00,353.00              532.00,353.00 522.41,362.23 522.41,362.23              522.41,362.23 511.04,370.63 511.04,370.63              511.04,370.63 484.00,390.00 484.00,390.00              484.00,390.00 482.00,389.00 482.00,389.00              482.00,389.00 482.00,391.00 482.00,391.00              482.00,391.00 453.00,405.96 453.00,405.96              453.00,405.96 403.00,427.00 403.00,427.00              394.84,430.13 372.04,436.09 367.00,441.00              367.00,441.00 348.91,432.90 348.91,432.90              348.91,432.90 315.00,419.05 315.00,419.05              315.00,419.05 281.42,402.39 281.42,402.39              281.42,402.39 260.00,390.30 260.00,390.30              260.00,390.30 250.00,386.00 250.00,386.00              250.00,386.00 248.00,385.00 248.00,385.00              248.00,385.00 245.00,382.00 245.00,382.00              245.00,382.00 243.00,381.00 243.00,381.00              243.00,381.00 242.00,378.00 242.00,378.00              242.00,378.00 240.00,379.00 240.00,379.00              240.00,379.00 227.99,371.46 227.99,371.46              227.99,371.46 219.00,363.85 219.00,363.85              219.00,363.85 198.00,343.00 198.00,343.00              198.00,343.00 199.00,340.00 199.00,340.00              188.87,333.30 188.94,309.41 195.26,300.04              198.78,294.82 203.69,292.86 209.00,286.00              214.73,285.58 216.67,282.95 222.00,280.90              228.89,278.24 243.55,276.45 248.00,272.00              248.00,272.00 253.00,273.00 253.00,273.00              255.63,270.06 258.54,271.02 262.00,272.00              265.11,268.54 276.28,270.00 281.00,270.00 Z"
     style="stroke:#ff0000;stroke-opacity:1" />
  <path
     id="選択範囲 #2"
     fill="none"
     stroke="black"
     stroke-width="1"
     d="M 653.00,97.66            C 655.67,98.41 658.32,101.64 660.28,103.58              664.84,108.10 668.76,113.24 674.00,117.00              674.00,117.00 673.00,120.00 673.00,120.00              673.00,120.00 674.00,121.00 674.00,121.00              674.00,121.00 677.00,120.00 677.00,120.00              678.05,123.84 688.09,134.08 690.91,138.28              698.74,149.95 702.60,161.34 708.18,173.83              708.18,173.83 711.92,182.00 711.92,182.00              718.00,199.45 724.97,233.60 725.00,252.00              725.00,252.00 725.66,263.00 725.66,263.00              725.66,263.00 723.71,283.00 723.71,283.00              723.71,283.00 720.32,300.00 720.32,300.00              720.32,300.00 719.54,308.00 719.54,308.00              719.54,308.00 717.00,321.00 717.00,321.00              717.00,321.00 715.00,320.00 715.00,320.00              715.00,320.00 708.70,341.00 708.70,341.00              708.70,341.00 705.65,352.72 705.65,352.72              705.65,352.72 692.28,378.29 692.28,378.29              692.28,378.29 684.92,393.23 684.92,393.23              684.92,393.23 683.00,394.00 683.00,394.00              681.89,401.29 675.50,408.79 671.52,414.99              669.23,418.55 666.98,420.67 667.00,425.00              667.00,425.00 664.00,424.00 664.00,424.00              660.61,433.26 647.32,449.20 640.73,457.00              637.67,460.61 631.11,466.77 630.00,471.00              630.00,471.00 628.00,471.00 628.00,471.00              627.23,474.81 622.44,479.85 619.81,483.00              612.06,492.29 605.95,498.40 597.29,506.76              592.96,510.94 590.30,515.53 584.00,516.00              584.00,516.00 578.24,496.00 578.24,496.00              578.24,496.00 574.16,475.00 574.16,475.00              574.16,475.00 570.26,461.00 570.26,461.00              570.26,461.00 567.91,433.00 567.91,433.00              567.37,426.25 566.02,429.30 566.00,415.00              566.00,415.00 566.00,393.00 566.00,393.00              566.00,393.00 565.04,377.00 565.04,377.00              565.04,377.00 565.04,362.00 565.04,362.00              565.04,362.00 565.96,354.00 565.96,354.00              565.96,354.00 565.00,341.00 565.00,341.00              565.00,341.00 566.00,319.00 566.00,319.00              566.00,319.00 568.55,298.00 568.55,298.00              568.63,288.63 573.02,269.62 575.25,260.00              577.19,251.65 574.69,255.19 578.77,243.00              580.21,238.71 580.71,229.84 584.00,227.00              584.00,227.00 585.00,223.00 585.00,223.00              585.00,223.00 586.00,220.00 586.00,220.00              584.79,212.32 590.35,202.99 593.02,196.00              593.02,196.00 595.06,189.00 595.06,189.00              595.06,189.00 602.63,173.00 602.63,173.00              602.63,173.00 608.69,159.00 608.69,159.00              608.69,159.00 616.56,145.00 616.56,145.00              616.56,145.00 621.75,135.00 621.75,135.00              621.75,135.00 633.51,117.00 633.51,117.00              636.58,112.55 638.89,111.54 639.00,106.00              642.77,103.30 648.39,96.35 653.00,97.66 Z"
     style="stroke:#ff0000;stroke-opacity:1" />
  <path
     id="選択範囲 #1"
     fill="none"
     stroke="black"
     stroke-width="1"
     d="M 222.00,27.32            C 222.00,27.32 239.00,25.83 239.00,25.83              245.87,24.84 247.57,23.10 256.00,23.00              256.00,23.00 276.00,23.00 276.00,23.00              293.81,23.03 316.61,25.61 334.00,29.36              334.00,29.36 357.00,36.24 357.00,36.24              357.00,36.24 365.72,39.64 365.72,39.64              365.72,39.64 374.00,41.00 374.00,41.00              376.18,38.62 377.02,39.22 380.00,40.00              383.47,34.84 397.84,32.97 404.00,31.92              404.00,31.92 426.00,27.28 426.00,27.28              435.85,25.89 438.32,26.02 448.00,26.00              448.00,26.00 470.00,25.00 470.00,25.00              470.00,25.00 483.57,26.03 483.57,26.03              486.38,25.84 486.85,24.84 489.00,27.00              492.29,26.21 499.56,25.52 502.00,28.00              508.85,26.12 520.95,29.81 528.00,31.63              542.90,35.46 557.87,39.11 572.00,45.51              572.00,45.51 594.00,55.23 594.00,55.23              597.93,57.09 600.68,59.57 605.00,60.00              605.00,60.00 608.00,62.00 608.00,62.00              608.00,62.00 609.00,65.00 609.00,65.00              609.00,65.00 612.00,64.00 612.00,64.00              612.00,64.00 613.00,67.00 613.00,67.00              613.00,67.00 615.00,66.00 615.00,66.00              615.00,66.00 633.12,80.46 633.12,80.46              634.82,83.69 633.65,87.17 631.79,90.00              629.06,94.15 617.17,110.67 614.00,113.00              614.00,113.00 615.00,116.00 615.00,116.00              615.00,116.00 612.00,117.00 612.00,117.00              612.00,117.00 613.00,119.00 613.00,119.00              613.00,119.00 600.00,138.00 600.00,138.00              600.00,138.00 601.00,138.00 601.00,138.00              601.00,138.00 602.00,140.00 602.00,140.00              602.00,140.00 600.00,141.00 600.00,141.00              600.00,141.00 599.00,140.00 599.00,140.00              597.36,148.62 589.67,159.87 585.66,168.00              585.66,168.00 573.55,202.91 573.55,202.91              573.55,202.91 570.75,209.09 570.75,209.09              569.02,213.29 565.40,225.60 565.00,230.00              565.00,230.00 557.00,228.00 557.00,228.00              557.00,228.00 552.00,222.00 552.00,222.00              552.00,222.00 543.00,211.00 543.00,211.00              538.43,209.63 531.03,202.58 526.83,199.36              518.15,192.72 494.77,178.02 484.00,178.00              484.00,178.00 482.00,175.00 482.00,175.00              482.00,175.00 478.00,174.00 478.00,174.00              470.44,175.51 469.53,172.36 463.91,171.27              463.91,171.27 443.00,170.00 443.00,170.00              443.00,170.00 427.00,170.00 427.00,170.00              417.75,170.04 393.94,176.15 385.00,179.58              385.00,179.58 374.00,184.15 374.00,184.15              369.61,185.24 362.53,183.92 360.00,180.00              360.00,180.00 356.00,181.00 356.00,181.00              351.24,176.24 338.63,173.46 332.00,171.87              319.80,168.95 304.57,167.98 292.00,168.00              285.63,168.01 267.50,171.55 261.00,173.29              256.34,174.54 252.92,176.76 248.00,177.00              248.00,177.00 244.00,178.00 244.00,178.00              244.00,178.00 242.00,181.00 242.00,181.00              242.00,181.00 239.00,180.00 239.00,180.00              239.00,180.00 237.00,184.00 237.00,184.00              237.00,184.00 235.00,183.00 235.00,183.00              235.00,183.00 220.09,192.31 220.09,192.31              220.09,192.31 206.28,201.57 206.28,201.57              206.28,201.57 176.00,228.00 176.00,228.00              176.00,228.00 174.00,226.00 174.00,226.00              174.00,226.00 173.00,226.00 173.00,226.00              173.00,226.00 174.00,223.00 174.00,223.00              174.00,223.00 173.00,219.00 173.00,219.00              168.87,216.32 168.60,211.56 167.58,207.00              167.58,207.00 160.61,182.01 160.61,182.01              160.61,182.01 156.81,174.83 156.81,174.83              156.81,174.83 154.45,167.00 154.45,167.00              154.45,167.00 148.10,151.00 148.10,151.00              141.78,136.78 133.77,123.28 125.64,110.04              122.86,105.50 118.12,97.88 114.75,94.05              112.76,91.79 106.50,84.52 105.88,81.83              104.71,76.82 114.99,71.17 119.00,70.00              119.00,70.00 118.00,67.00 118.00,67.00              123.62,66.31 129.15,63.11 133.00,59.00              133.00,59.00 135.00,60.00 135.00,60.00              135.00,60.00 136.00,57.00 136.00,57.00              136.00,57.00 138.00,56.00 138.00,56.00              138.00,56.00 141.00,57.00 141.00,57.00              141.00,57.00 149.00,51.74 149.00,51.74              149.00,51.74 171.00,40.00 171.00,40.00              171.00,40.00 176.00,38.00 176.00,38.00              183.00,38.29 201.77,33.53 207.00,29.00              214.22,29.80 215.62,28.36 222.00,27.32 Z"
     style="stroke:#ff0000;stroke-opacity:1" />
  <path
     id="選択範囲"
     fill="none"
     stroke="black"
     stroke-width="1"
     d="M 82.83,95.85            C 84.25,94.29 86.34,91.66 88.69,91.80              91.03,91.94 97.48,99.92 100.00,102.00              100.00,102.00 110.00,117.00 110.00,117.00              110.00,117.00 109.00,119.00 109.00,119.00              109.00,119.00 112.00,120.00 112.00,120.00              112.00,120.00 114.00,123.00 114.00,123.00              114.73,126.06 120.61,134.61 122.49,138.00              129.51,150.65 132.59,157.39 137.54,171.00              137.54,171.00 143.23,186.17 143.23,186.17              144.09,187.16 144.38,186.78 145.00,187.00              145.00,187.00 150.70,206.00 150.70,206.00              150.70,206.00 156.71,228.00 156.71,228.00              156.71,228.00 159.58,236.00 159.58,236.00              159.58,236.00 165.10,268.01 165.10,268.01              165.10,268.01 167.00,281.00 167.00,281.00              167.00,281.00 167.00,296.00 167.00,296.00              167.00,296.00 169.04,295.00 169.04,295.00              169.04,295.00 169.04,308.00 169.04,308.00              169.04,308.00 170.00,320.00 170.00,320.00              170.00,320.00 170.00,344.00 170.00,344.00              170.00,344.00 170.66,357.00 170.66,357.00              170.66,357.00 170.66,366.00 170.66,366.00              170.66,366.00 170.66,371.00 170.66,371.00              170.66,371.00 168.93,393.00 168.93,393.00              168.93,393.00 168.93,406.00 168.93,406.00              168.93,406.00 165.87,428.00 165.87,428.00              165.87,428.00 161.13,460.00 161.13,460.00              161.13,460.00 158.00,471.00 158.00,471.00              158.00,471.00 159.00,474.00 159.00,474.00              159.00,474.00 156.00,476.00 156.00,476.00              158.15,483.81 153.48,496.37 150.79,504.00              149.71,507.08 147.36,511.75 143.25,510.34              139.50,509.06 135.23,499.61 130.00,498.00              126.55,490.36 124.32,490.67 119.72,485.49              115.36,480.59 105.45,468.34 101.00,465.00              99.92,461.23 97.32,459.78 95.04,456.75              95.04,456.75 87.58,445.28 87.58,445.28              83.96,440.36 79.01,436.27 78.00,430.00              71.33,427.89 69.53,419.43 65.69,414.17              65.69,414.17 54.00,394.00 54.00,394.00              54.00,394.00 42.28,373.00 42.28,373.00              39.23,366.04 35.84,353.56 30.00,349.00              30.00,349.00 31.00,347.00 31.00,347.00              28.90,345.02 29.38,344.75 30.00,342.00              25.94,339.26 24.17,329.81 22.88,325.00              18.03,306.90 14.23,298.55 14.00,279.00              14.00,279.00 11.68,260.00 11.68,260.00              11.68,260.00 12.75,254.00 12.75,254.00              12.75,254.00 13.91,236.00 13.91,236.00              13.19,220.02 16.21,211.01 20.80,196.00              24.76,183.01 28.74,170.25 34.72,158.00              39.32,148.58 50.66,130.90 57.42,123.00              60.38,119.56 71.11,109.18 72.00,106.00              72.00,106.00 73.00,104.00 73.00,104.00              78.39,101.67 79.07,99.96 82.83,95.85 Z"
     style="stroke:#ff0000;stroke-opacity:1" />
</svg>
